<mxfile host="app.diagrams.net" modified="2023-03-06T03:13:31.174Z" agent="5.0 (Windows NT 10.0; Win64; x64) AppleWebKit/537.36 (KHTML, like Gecko) Chrome/110.0.0.0 Safari/537.36" etag="Xgq-yR7GiElWE2yQsjRv" version="21.0.2" type="github">
  <diagram name="第 1 页" id="udgZHCijAvLMBeUO9COi">
    <mxGraphModel dx="1050" dy="541" grid="1" gridSize="10" guides="1" tooltips="1" connect="1" arrows="1" fold="1" page="1" pageScale="1" pageWidth="827" pageHeight="1169" math="0" shadow="0">
      <root>
        <mxCell id="0" />
        <mxCell id="1" parent="0" />
        <mxCell id="Fe3V0mSJuMWjvtr58NXK-4" style="edgeStyle=orthogonalEdgeStyle;rounded=0;orthogonalLoop=1;jettySize=auto;html=1;exitX=0.5;exitY=1;exitDx=0;exitDy=0;exitPerimeter=0;entryX=0.5;entryY=0;entryDx=0;entryDy=0;" edge="1" parent="1" source="Fe3V0mSJuMWjvtr58NXK-2" target="Fe3V0mSJuMWjvtr58NXK-14">
          <mxGeometry relative="1" as="geometry" />
        </mxCell>
        <mxCell id="Fe3V0mSJuMWjvtr58NXK-2" value="开始" style="strokeWidth=2;html=1;shape=mxgraph.flowchart.start_1;whiteSpace=wrap;" vertex="1" parent="1">
          <mxGeometry x="235" y="50" width="80" height="40" as="geometry" />
        </mxCell>
        <mxCell id="Fe3V0mSJuMWjvtr58NXK-6" style="edgeStyle=orthogonalEdgeStyle;rounded=0;orthogonalLoop=1;jettySize=auto;html=1;exitX=0.5;exitY=1;exitDx=0;exitDy=0;entryX=0.5;entryY=0;entryDx=0;entryDy=0;entryPerimeter=0;" edge="1" parent="1" source="Fe3V0mSJuMWjvtr58NXK-3">
          <mxGeometry relative="1" as="geometry">
            <mxPoint x="275" y="290" as="targetPoint" />
          </mxGeometry>
        </mxCell>
        <mxCell id="Fe3V0mSJuMWjvtr58NXK-3" value="分片计算文件MD5" style="rounded=1;whiteSpace=wrap;html=1;absoluteArcSize=1;arcSize=14;strokeWidth=2;shadow=0;fontSize=12;" vertex="1" parent="1">
          <mxGeometry x="215" y="200" width="120" height="40" as="geometry" />
        </mxCell>
        <mxCell id="Fe3V0mSJuMWjvtr58NXK-12" style="edgeStyle=orthogonalEdgeStyle;rounded=0;orthogonalLoop=1;jettySize=auto;html=1;exitX=0.5;exitY=1;exitDx=0;exitDy=0;exitPerimeter=0;" edge="1" parent="1" target="Fe3V0mSJuMWjvtr58NXK-7">
          <mxGeometry relative="1" as="geometry">
            <mxPoint x="275" y="350" as="sourcePoint" />
          </mxGeometry>
        </mxCell>
        <mxCell id="Fe3V0mSJuMWjvtr58NXK-13" value="否" style="edgeLabel;html=1;align=center;verticalAlign=middle;resizable=0;points=[];" vertex="1" connectable="0" parent="Fe3V0mSJuMWjvtr58NXK-12">
          <mxGeometry x="-0.3067" y="2" relative="1" as="geometry">
            <mxPoint x="-2" y="3" as="offset" />
          </mxGeometry>
        </mxCell>
        <mxCell id="Fe3V0mSJuMWjvtr58NXK-36" value="是" style="edgeStyle=orthogonalEdgeStyle;rounded=0;orthogonalLoop=1;jettySize=auto;html=1;exitX=1;exitY=0.5;exitDx=0;exitDy=0;exitPerimeter=0;entryX=1;entryY=0.5;entryDx=0;entryDy=0;entryPerimeter=0;" edge="1" parent="1" source="Fe3V0mSJuMWjvtr58NXK-5" target="Fe3V0mSJuMWjvtr58NXK-34">
          <mxGeometry relative="1" as="geometry">
            <Array as="points">
              <mxPoint x="430" y="320" />
              <mxPoint x="430" y="945" />
            </Array>
          </mxGeometry>
        </mxCell>
        <mxCell id="Fe3V0mSJuMWjvtr58NXK-5" value="查询MD5是否存在" style="strokeWidth=2;html=1;shape=mxgraph.flowchart.decision;whiteSpace=wrap;" vertex="1" parent="1">
          <mxGeometry x="190" y="290" width="170" height="60" as="geometry" />
        </mxCell>
        <mxCell id="Fe3V0mSJuMWjvtr58NXK-17" style="edgeStyle=orthogonalEdgeStyle;rounded=0;orthogonalLoop=1;jettySize=auto;html=1;exitX=0.5;exitY=1;exitDx=0;exitDy=0;entryX=0.5;entryY=0;entryDx=0;entryDy=0;entryPerimeter=0;" edge="1" parent="1" source="Fe3V0mSJuMWjvtr58NXK-7">
          <mxGeometry relative="1" as="geometry">
            <mxPoint x="275" y="480" as="targetPoint" />
          </mxGeometry>
        </mxCell>
        <mxCell id="Fe3V0mSJuMWjvtr58NXK-7" value="返回已经上传的分片列表" style="rounded=1;whiteSpace=wrap;html=1;absoluteArcSize=1;arcSize=14;strokeWidth=2;" vertex="1" parent="1">
          <mxGeometry x="198.75" y="400" width="152.5" height="40" as="geometry" />
        </mxCell>
        <mxCell id="Fe3V0mSJuMWjvtr58NXK-15" style="edgeStyle=orthogonalEdgeStyle;rounded=0;orthogonalLoop=1;jettySize=auto;html=1;exitX=0.5;exitY=1;exitDx=0;exitDy=0;entryX=0.5;entryY=0;entryDx=0;entryDy=0;" edge="1" parent="1" source="Fe3V0mSJuMWjvtr58NXK-14" target="Fe3V0mSJuMWjvtr58NXK-3">
          <mxGeometry relative="1" as="geometry" />
        </mxCell>
        <mxCell id="Fe3V0mSJuMWjvtr58NXK-14" value="选择文件" style="shape=parallelogram;html=1;strokeWidth=2;perimeter=parallelogramPerimeter;whiteSpace=wrap;rounded=1;arcSize=12;size=0.23;" vertex="1" parent="1">
          <mxGeometry x="225" y="120" width="100" height="40" as="geometry" />
        </mxCell>
        <mxCell id="Fe3V0mSJuMWjvtr58NXK-26" style="edgeStyle=orthogonalEdgeStyle;rounded=0;orthogonalLoop=1;jettySize=auto;html=1;exitX=0.5;exitY=1;exitDx=0;exitDy=0;entryX=0.5;entryY=0;entryDx=0;entryDy=0;entryPerimeter=0;" edge="1" parent="1" source="Fe3V0mSJuMWjvtr58NXK-18" target="Fe3V0mSJuMWjvtr58NXK-19">
          <mxGeometry relative="1" as="geometry" />
        </mxCell>
        <mxCell id="Fe3V0mSJuMWjvtr58NXK-18" value="筛选出未上传列表" style="rounded=1;whiteSpace=wrap;html=1;absoluteArcSize=1;arcSize=14;strokeWidth=2;" vertex="1" parent="1">
          <mxGeometry x="202.5" y="480" width="145" height="40" as="geometry" />
        </mxCell>
        <mxCell id="Fe3V0mSJuMWjvtr58NXK-28" value="否" style="edgeStyle=orthogonalEdgeStyle;rounded=0;orthogonalLoop=1;jettySize=auto;html=1;exitX=0.5;exitY=1;exitDx=0;exitDy=0;exitPerimeter=0;entryX=0.5;entryY=0;entryDx=0;entryDy=0;" edge="1" parent="1" source="Fe3V0mSJuMWjvtr58NXK-19" target="Fe3V0mSJuMWjvtr58NXK-22">
          <mxGeometry relative="1" as="geometry">
            <Array as="points">
              <mxPoint x="274" y="630" />
              <mxPoint x="274" y="630" />
            </Array>
          </mxGeometry>
        </mxCell>
        <mxCell id="Fe3V0mSJuMWjvtr58NXK-30" value="是" style="edgeStyle=orthogonalEdgeStyle;rounded=0;orthogonalLoop=1;jettySize=auto;html=1;exitX=1;exitY=0.5;exitDx=0;exitDy=0;exitPerimeter=0;entryX=1;entryY=0.5;entryDx=0;entryDy=0;entryPerimeter=0;" edge="1" parent="1" source="Fe3V0mSJuMWjvtr58NXK-19" target="Fe3V0mSJuMWjvtr58NXK-27">
          <mxGeometry relative="1" as="geometry" />
        </mxCell>
        <mxCell id="Fe3V0mSJuMWjvtr58NXK-19" value="是否已经上传" style="strokeWidth=2;html=1;shape=mxgraph.flowchart.decision;whiteSpace=wrap;" vertex="1" parent="1">
          <mxGeometry x="198.75" y="555" width="150" height="60" as="geometry" />
        </mxCell>
        <mxCell id="Fe3V0mSJuMWjvtr58NXK-29" style="edgeStyle=orthogonalEdgeStyle;rounded=0;orthogonalLoop=1;jettySize=auto;html=1;exitX=0.5;exitY=1;exitDx=0;exitDy=0;entryX=0.5;entryY=0;entryDx=0;entryDy=0;entryPerimeter=0;" edge="1" parent="1" source="Fe3V0mSJuMWjvtr58NXK-22" target="Fe3V0mSJuMWjvtr58NXK-27">
          <mxGeometry relative="1" as="geometry" />
        </mxCell>
        <mxCell id="Fe3V0mSJuMWjvtr58NXK-22" value="上传分片" style="rounded=1;whiteSpace=wrap;html=1;absoluteArcSize=1;arcSize=14;strokeWidth=2;" vertex="1" parent="1">
          <mxGeometry x="223.75" y="680" width="100" height="40" as="geometry" />
        </mxCell>
        <mxCell id="Fe3V0mSJuMWjvtr58NXK-31" value="否" style="edgeStyle=orthogonalEdgeStyle;rounded=0;orthogonalLoop=1;jettySize=auto;html=1;exitX=0;exitY=0.5;exitDx=0;exitDy=0;exitPerimeter=0;entryX=0;entryY=0.5;entryDx=0;entryDy=0;entryPerimeter=0;" edge="1" parent="1" source="Fe3V0mSJuMWjvtr58NXK-27" target="Fe3V0mSJuMWjvtr58NXK-19">
          <mxGeometry relative="1" as="geometry" />
        </mxCell>
        <mxCell id="Fe3V0mSJuMWjvtr58NXK-33" style="edgeStyle=orthogonalEdgeStyle;rounded=0;orthogonalLoop=1;jettySize=auto;html=1;exitX=0.5;exitY=1;exitDx=0;exitDy=0;exitPerimeter=0;entryX=0.5;entryY=0;entryDx=0;entryDy=0;" edge="1" parent="1" source="Fe3V0mSJuMWjvtr58NXK-27" target="Fe3V0mSJuMWjvtr58NXK-32">
          <mxGeometry relative="1" as="geometry" />
        </mxCell>
        <mxCell id="Fe3V0mSJuMWjvtr58NXK-27" value="是否上传完毕" style="strokeWidth=2;html=1;shape=mxgraph.flowchart.decision;whiteSpace=wrap;" vertex="1" parent="1">
          <mxGeometry x="211.25" y="760" width="125" height="60" as="geometry" />
        </mxCell>
        <mxCell id="Fe3V0mSJuMWjvtr58NXK-35" style="edgeStyle=orthogonalEdgeStyle;rounded=0;orthogonalLoop=1;jettySize=auto;html=1;exitX=0.5;exitY=1;exitDx=0;exitDy=0;entryX=0.5;entryY=0;entryDx=0;entryDy=0;entryPerimeter=0;" edge="1" parent="1" source="Fe3V0mSJuMWjvtr58NXK-32" target="Fe3V0mSJuMWjvtr58NXK-34">
          <mxGeometry relative="1" as="geometry" />
        </mxCell>
        <mxCell id="Fe3V0mSJuMWjvtr58NXK-32" value="发送合并请求" style="rounded=1;whiteSpace=wrap;html=1;absoluteArcSize=1;arcSize=14;strokeWidth=2;" vertex="1" parent="1">
          <mxGeometry x="223.75" y="850" width="100" height="40" as="geometry" />
        </mxCell>
        <mxCell id="Fe3V0mSJuMWjvtr58NXK-34" value="结束" style="strokeWidth=2;html=1;shape=mxgraph.flowchart.terminator;whiteSpace=wrap;" vertex="1" parent="1">
          <mxGeometry x="218.75" y="920" width="105" height="50" as="geometry" />
        </mxCell>
      </root>
    </mxGraphModel>
  </diagram>
</mxfile>
